<?xml version="1.0" encoding="UTF-8"?>
<svg id="Layer_1" data-name="Layer 1" xmlns="http://www.w3.org/2000/svg" viewBox="0 0 188.82 39.99">
  <defs>
    <style>
      .cls-1 {
        fill: #fbb03b;
      }
    </style>
  </defs>
  <path class="cls-1" d="M0,20.8C0,10.89,9.1,2.02,20.05,2.02s19.42,7.66,19.42,18.84c0,9.91-9.05,18.61-20.05,18.61S0,31.98,0,20.8ZM31.35,20.74c0-11.41-4.5-18.04-11.76-18.04s-11.53,5.99-11.53,18.09,4.44,18.04,11.87,18.04,11.41-5.93,11.41-18.09Z"/>
  <path class="cls-1" d="M41.37,6.57c0-2.48-.4-2.94-2.36-3.46l-1.33-.35.06-.23,10.08-2.54v18.67l.17.17c2.31-2.88,5.42-5.24,9.05-5.24,5.7,0,10.26,5.13,10.26,12.16,0,9.45-7.61,13.83-13.71,13.83-2.88,0-5.65-.86-7.84-1.79h-.06l-3.98,2.19h-.35V6.57ZM60.16,27.6c0-5.82-2.65-10.37-7.03-10.37-2.25,0-3.92,1.15-5.3,2.48v13.6c1.44,3.11,4.15,5.65,6.57,5.65,3.75,0,5.76-5.19,5.76-11.35Z"/>
  <path class="cls-1" d="M69.2,38.09l-.35-7.2h.29l1.38,2.48c1.9,3.63,3.86,5.7,7.26,5.7,3.05,0,4.9-1.9,4.9-4.55,0-2.82-2.59-4.26-6.05-5.59-3.92-1.5-7.32-3.17-7.32-7.66,0-4.84,3.86-7.89,9.22-7.89,1.96,0,3.98.4,5.47.98l2.25-.58.29,7.43-.29.12-4.26-6.11c-.92-.63-2.07-1.33-3.57-1.33-2.77,0-4.32,1.67-4.32,4.26s2.59,3.8,6.05,5.13c3.86,1.56,7.66,3.17,7.66,7.95,0,4.26-3.34,8.36-10.32,8.36-3.4,0-6.17-.69-8.3-1.5Z"/>
  <path class="cls-1" d="M89.14,27.2c0-7.78,5.53-13.89,13.6-13.89,5.07,0,9.16,2.25,9.16,5.65,0,1.96-1.5,3.51-3.4,3.51s-3.46-1.5-3.46-3.28,1.44-3,1.44-3.46c0-.81-1.61-1.79-3.34-1.79-4.03,0-6.91,4.21-6.91,10.83s3.34,10.83,8.53,10.83c3.28,0,5.42-1.21,7.2-4.49l.4.17c-2.48,5.3-6.11,8.36-11.29,8.36-6.91,0-11.93-5.36-11.93-12.45Z"/>
  <path class="cls-1" d="M131.72,34.4h-.11c-2.54,2.42-5.94,5.19-9.85,5.19-1.9,0-3.11-.69-4.38-1.96s-1.84-3.63-1.79-6.34l.11-16.02c0-.29-.11-.46-3.05-.69l-.81-.06-.17-.35h10.55l-.11,16.42c-.06,3.52,1.73,4.84,4.84,4.84,2.07,0,3.46-.75,4.67-1.67v-17.4c0-1.38-.46-1.61-2.94-1.79l-.81-.06-.17-.35h10.43v18.84c0,2.31.29,2.65,1.56,3l2.13.46-.06.23-10.14,3,.11-5.3Z"/>
  <path class="cls-1" d="M141.46,38.44l.86-.06c1.79-.12,2.42-.23,2.42-.92v-16.14c0-3.57-.4-4.09-2.36-4.55l-1.32-.29.06-.23,10.26-2.77-.17,9.1h.11c1.67-5.99,4.09-9.22,7.78-9.22,2.31,0,4.15,1.5,4.15,3.86,0,1.73-1.44,3.57-3.52,3.57s-3.63-1.56-3.98-3.8c-1.96.29-3.11,2.71-4.49,7.89v12.62c0,.46.46.75,3.05.86l1.27.06.17.35h-14.46l.17-.35Z"/>
  <path class="cls-1" d="M177.59,34.46l-.06-.06c-2.42,2.71-4.9,4.96-7.89,4.96-3.34,0-5.94-2.65-5.94-5.47,0-4.03,3.17-6.86,14.12-9.57l.06-1.96c.17-4.84-2.07-7.55-5.76-7.55-2.13,0-3.57.86-3.57,1.5,0,.46,1.73,1.9,1.73,3.4,0,1.67-1.38,3-3.34,3-1.79,0-3.23-1.04-3.23-2.77,0-3.69,7.72-6.63,12.5-6.63,6.28,0,8.53,2.42,8.24,8.93l-.52,10.78c-.12,2.13.81,3.17,2.13,3.17.92,0,1.73-.86,2.42-1.67l.35.17c-1.27,1.61-3.63,4.73-6.57,4.73-2.71,0-4.26-1.84-4.67-4.96ZM177.47,33.77l.4-8.82c-6.17,1.44-7.78,3.63-7.78,6.57,0,2.42,1.5,4.15,3.51,4.15,1.44,0,2.59-.58,3.86-1.9Z"/>
</svg>