<svg xmlns="http://www.w3.org/2000/svg" xmlns:xlink="http://www.w3.org/1999/xlink" width="500" zoomAndPan="magnify" viewBox="0 0 375 374.999991" height="500" preserveAspectRatio="xMidYMid meet" version="1.0"><defs><g/><clipPath id="deedf65070"><path d="M 169 101 L 296 101 L 296 167 L 169 167 Z M 169 101 " clip-rule="nonzero"/></clipPath><clipPath id="9fe909cd8f"><path d="M 163.636719 114.40625 L 295.191406 100.726562 L 301.464844 161.054688 L 169.90625 174.734375 Z M 163.636719 114.40625 " clip-rule="nonzero"/></clipPath><clipPath id="6c511a5de9"><path d="M 172.675781 165.746094 C 171.761719 165.460938 172.730469 165.042969 172.730469 165.042969 C 172.738281 165.105469 172.113281 165.804688 171.6875 165.976562 C 171.132812 166.097656 170.292969 165.929688 169.820312 165.664062 C 169.484375 165.445312 169.171875 164.910156 169.070312 164.539062 C 169.027344 164.101562 168.980469 163.664062 169.304688 163.125 C 170.101562 161.648438 173.078125 159.253906 176.492188 156.808594 C 182.789062 152.296875 195.085938 145.832031 205.929688 140.023438 C 218.871094 133.113281 234.605469 125.023438 249.296875 118.5 C 263.871094 112.050781 289.390625 100.792969 293.726562 101.101562 C 294.488281 101.148438 294.832031 101.429688 295.066406 101.847656 C 295.292969 102.203125 295.421875 102.824219 295.222656 103.351562 C 294.757812 104.347656 291.136719 105.421875 290.511719 106.6875 C 290.09375 107.550781 290.835938 108.613281 290.539062 109.402344 C 290.3125 110.25 289.84375 110.613281 288.945312 111.71875 C 286.066406 115.054688 274.46875 125.179688 269.546875 130.753906 C 266.148438 134.585938 260.578125 139.402344 261.515625 141.136719 C 262.757812 143.347656 278.019531 139.234375 282.414062 139.535156 C 284.582031 139.6875 285.789062 139.753906 287.074219 140.566406 C 288.425781 141.375 289.996094 143.109375 290.4375 144.328125 C 290.789062 145.242188 290.550781 146.027344 290.519531 146.914062 C 290.433594 147.933594 290.332031 148.769531 289.890625 150.015625 C 289.125 152.371094 285.691406 159.496094 284.984375 159.382812 C 284.664062 159.351562 284.324219 157.300781 284.5625 157.148438 C 284.796875 156.996094 285.773438 158.476562 286.414062 158.539062 C 286.988281 158.605469 287.59375 157.71875 288.21875 157.652344 C 288.84375 157.589844 289.683594 157.753906 290.105469 158.152344 C 290.527344 158.550781 290.875 159.464844 290.746094 160.046875 C 290.679688 160.625 290.125 161.378906 289.582031 161.625 C 289.101562 161.863281 288.140625 161.773438 287.609375 161.511719 C 287.132812 161.183594 286.671875 160.40625 286.613281 159.84375 C 286.546875 159.21875 286.96875 158.417969 287.4375 158.050781 C 287.90625 157.6875 288.832031 157.464844 289.363281 157.722656 C 289.960938 157.980469 290.78125 159.160156 290.78125 159.789062 C 290.847656 160.417969 290.347656 161.101562 289.816406 161.472656 C 288.9375 162.132812 287.03125 162.648438 285.738281 162.402344 C 284.457031 162.21875 282.644531 161.207031 282.082031 160.0625 C 281.507812 158.792969 282.175781 156.699219 282.679688 154.878906 C 283.40625 152.714844 285.691406 149.757812 286.265625 147.988281 C 286.667969 147 287.027344 146.203125 286.824219 145.464844 C 286.566406 144.796875 285.875 144.234375 284.945312 143.824219 C 283.234375 143.179688 279.664062 143.488281 276.445312 143.570312 C 272.15625 143.699219 264.210938 145.160156 261.589844 144.863281 C 260.6875 144.703125 260.296875 144.617188 259.75 144.230469 C 259.066406 143.734375 258.148438 142.816406 258.050781 141.878906 C 257.914062 140.5625 259.101562 138.605469 260.074219 136.988281 C 261.261719 135.03125 262.828125 133.664062 265.097656 131.152344 C 269.632812 126.125 282.933594 114.117188 285.851562 109.320312 C 287.042969 107.425781 286.644531 106.015625 287.535156 104.847656 C 288.425781 103.679688 289.855469 102.832031 291.054688 102.203125 C 292.074219 101.652344 293.390625 100.949219 294.113281 101.1875 C 294.695312 101.316406 295.28125 102.078125 295.332031 102.582031 C 295.386719 103.082031 295.003906 103.691406 294.425781 104.191406 C 293.082031 105.28125 289.558594 105.457031 285.714844 106.804688 C 277.90625 109.578125 260.914062 116.46875 250.515625 121.09375 C 241.921875 124.832031 234.886719 128.347656 227.488281 132.027344 C 220.515625 135.535156 214.511719 138.625 207.40625 142.652344 C 199.101562 147.375 187.117188 154.378906 180.75 158.835938 C 176.972656 161.441406 173.988281 164.976562 172.105469 165.742188 C 171.320312 166.078125 170.75 166.074219 170.292969 165.929688 C 169.835938 165.789062 169.414062 165.390625 169.242188 164.964844 C 169.066406 164.476562 169.097656 163.589844 169.304688 163.125 C 169.515625 162.722656 169.984375 162.359375 170.402344 162.125 C 171.007812 161.871094 171.878906 161.71875 172.578125 161.769531 C 173.289062 161.886719 174.269531 162.226562 174.644531 162.757812 C 174.953125 163.296875 175.007812 164.429688 174.675781 164.90625 C 174.351562 165.445312 172.675781 165.746094 172.675781 165.746094 " clip-rule="nonzero"/></clipPath><clipPath id="0c170e175f"><path d="M 71 227.320312 L 139.511719 227.320312 L 139.511719 258.6875 L 71 258.6875 Z M 71 227.320312 " clip-rule="nonzero"/></clipPath><clipPath id="a96bf9612d"><path d="M 100.503906 231.398438 C 82.589844 247.300781 75.816406 257.230469 74.539062 256.828125 C 74.070312 256.691406 73.667969 255.214844 74.203125 254.410156 C 76.417969 251.324219 100.839844 248.84375 112.246094 246.695312 C 121.574219 244.949219 134.320312 241.730469 137.742188 242.265625 C 138.683594 242.402344 139.152344 242.667969 139.421875 243.140625 C 139.621094 243.609375 139.421875 244.683594 139.019531 244.949219 C 138.546875 245.285156 137.140625 245.085938 136.804688 244.75 C 136.46875 244.414062 136.402344 243.742188 136.535156 243.339844 C 136.667969 242.9375 137.140625 242.332031 137.609375 242.332031 C 138.078125 242.265625 139.351562 242.9375 139.488281 243.472656 C 139.621094 243.945312 139.152344 244.75 138.28125 245.285156 C 135.261719 247.300781 122.175781 247.902344 112.984375 249.78125 C 101.78125 252.0625 80.914062 257.363281 76.082031 258.234375 C 74.875 258.4375 74.539062 258.703125 73.800781 258.503906 C 72.863281 258.234375 71.320312 257.230469 71.050781 256.355469 C 70.851562 255.484375 71.65625 254.410156 72.257812 253.40625 C 73.0625 252.128906 74.136719 251.257812 75.746094 249.511719 C 79.238281 245.6875 88.429688 235.492188 92.589844 232 C 94.734375 230.191406 96.347656 229.183594 97.890625 228.445312 C 99.03125 227.839844 100.171875 227.371094 101.109375 227.4375 C 101.847656 227.4375 102.652344 227.707031 103.121094 228.109375 C 103.59375 228.648438 104.128906 229.652344 103.996094 230.324219 C 103.859375 230.929688 102.921875 231.800781 102.316406 231.933594 C 101.78125 232.070312 100.503906 231.398438 100.503906 231.398438 " clip-rule="nonzero"/></clipPath></defs><g fill="#0455bf" fill-opacity="1"><g transform="translate(149.207426, 236.904359)"><g><path d="M 4.796875 -6.296875 C 5.160156 -6.296875 5.488281 -6.207031 5.78125 -6.03125 C 6.082031 -5.863281 6.320312 -5.632812 6.5 -5.34375 C 6.6875 -5.050781 6.78125 -4.722656 6.78125 -4.359375 C 6.78125 -3.984375 6.679688 -3.644531 6.484375 -3.34375 C 6.296875 -3.039062 6.039062 -2.796875 5.71875 -2.609375 C 5.394531 -2.429688 5.039062 -2.34375 4.65625 -2.34375 L 2.390625 -2.34375 L 2.390625 0 L 1.421875 0 L 1.421875 -6.296875 Z M 4.59375 -3.28125 C 4.800781 -3.28125 4.992188 -3.328125 5.171875 -3.421875 C 5.347656 -3.523438 5.488281 -3.65625 5.59375 -3.8125 C 5.707031 -3.976562 5.765625 -4.160156 5.765625 -4.359375 C 5.765625 -4.546875 5.707031 -4.710938 5.59375 -4.859375 C 5.488281 -5.015625 5.347656 -5.132812 5.171875 -5.21875 C 4.992188 -5.3125 4.800781 -5.359375 4.59375 -5.359375 L 2.390625 -5.359375 L 2.390625 -3.28125 Z M 4.59375 -3.28125 "/></g></g></g><g fill="#0455bf" fill-opacity="1"><g transform="translate(155.18348, 236.904359)"><g><path d="M 6.796875 -2.359375 C 6.796875 -1.878906 6.671875 -1.457031 6.421875 -1.09375 C 6.171875 -0.726562 5.820312 -0.4375 5.375 -0.21875 C 4.9375 -0.0078125 4.4375 0.09375 3.875 0.09375 C 3.300781 0.09375 2.789062 -0.0078125 2.34375 -0.21875 C 1.90625 -0.4375 1.5625 -0.726562 1.3125 -1.09375 C 1.0625 -1.457031 0.9375 -1.878906 0.9375 -2.359375 C 0.9375 -2.847656 1.0625 -3.273438 1.3125 -3.640625 C 1.5625 -4.003906 1.90625 -4.289062 2.34375 -4.5 C 2.789062 -4.71875 3.300781 -4.828125 3.875 -4.828125 C 4.4375 -4.828125 4.9375 -4.71875 5.375 -4.5 C 5.820312 -4.289062 6.171875 -4.003906 6.421875 -3.640625 C 6.671875 -3.273438 6.796875 -2.847656 6.796875 -2.359375 Z M 5.84375 -2.359375 C 5.851562 -2.679688 5.769531 -2.960938 5.59375 -3.203125 C 5.425781 -3.453125 5.191406 -3.644531 4.890625 -3.78125 C 4.585938 -3.914062 4.25 -3.984375 3.875 -3.984375 C 3.5 -3.984375 3.160156 -3.914062 2.859375 -3.78125 C 2.554688 -3.644531 2.316406 -3.453125 2.140625 -3.203125 C 1.960938 -2.960938 1.878906 -2.679688 1.890625 -2.359375 C 1.878906 -2.054688 1.960938 -1.78125 2.140625 -1.53125 C 2.316406 -1.289062 2.554688 -1.097656 2.859375 -0.953125 C 3.160156 -0.816406 3.5 -0.75 3.875 -0.75 C 4.25 -0.75 4.585938 -0.816406 4.890625 -0.953125 C 5.191406 -1.097656 5.425781 -1.289062 5.59375 -1.53125 C 5.769531 -1.78125 5.851562 -2.054688 5.84375 -2.359375 Z M 5.84375 -2.359375 "/></g></g></g><g fill="#0455bf" fill-opacity="1"><g transform="translate(161.123531, 236.904359)"><g><path d="M 4.953125 -3.453125 C 4.722656 -3.617188 4.445312 -3.757812 4.125 -3.875 C 3.800781 -4 3.492188 -4.0625 3.203125 -4.0625 C 3.023438 -4.0625 2.835938 -4.046875 2.640625 -4.015625 C 2.441406 -3.984375 2.269531 -3.925781 2.125 -3.84375 C 1.988281 -3.757812 1.921875 -3.640625 1.921875 -3.484375 C 1.921875 -3.347656 1.988281 -3.234375 2.125 -3.140625 C 2.257812 -3.054688 2.4375 -2.984375 2.65625 -2.921875 C 2.875 -2.867188 3.113281 -2.816406 3.375 -2.765625 C 3.632812 -2.722656 3.890625 -2.671875 4.140625 -2.609375 C 4.390625 -2.546875 4.613281 -2.460938 4.8125 -2.359375 C 5.019531 -2.265625 5.179688 -2.140625 5.296875 -1.984375 C 5.421875 -1.828125 5.484375 -1.632812 5.484375 -1.40625 C 5.484375 -1.082031 5.382812 -0.804688 5.1875 -0.578125 C 4.988281 -0.359375 4.726562 -0.191406 4.40625 -0.078125 C 4.082031 0.0351562 3.722656 0.09375 3.328125 0.09375 C 2.835938 0.09375 2.378906 0.0234375 1.953125 -0.109375 C 1.523438 -0.242188 1.164062 -0.472656 0.875 -0.796875 L 1.515625 -1.375 C 1.734375 -1.15625 1.988281 -0.984375 2.28125 -0.859375 C 2.570312 -0.742188 2.90625 -0.6875 3.28125 -0.6875 C 3.457031 -0.6875 3.644531 -0.703125 3.84375 -0.734375 C 4.050781 -0.765625 4.222656 -0.820312 4.359375 -0.90625 C 4.503906 -0.988281 4.578125 -1.113281 4.578125 -1.28125 C 4.578125 -1.414062 4.503906 -1.523438 4.359375 -1.609375 C 4.222656 -1.691406 4.039062 -1.757812 3.8125 -1.8125 C 3.582031 -1.863281 3.335938 -1.910156 3.078125 -1.953125 C 2.796875 -2.003906 2.53125 -2.0625 2.28125 -2.125 C 2.03125 -2.195312 1.804688 -2.285156 1.609375 -2.390625 C 1.421875 -2.492188 1.269531 -2.628906 1.15625 -2.796875 C 1.039062 -2.972656 0.984375 -3.191406 0.984375 -3.453125 C 0.984375 -3.734375 1.082031 -3.972656 1.28125 -4.171875 C 1.476562 -4.378906 1.742188 -4.539062 2.078125 -4.65625 C 2.410156 -4.769531 2.78125 -4.828125 3.1875 -4.828125 C 3.445312 -4.828125 3.71875 -4.800781 4 -4.75 C 4.28125 -4.695312 4.546875 -4.613281 4.796875 -4.5 C 5.054688 -4.394531 5.28125 -4.25 5.46875 -4.0625 Z M 4.953125 -3.453125 "/></g></g></g><g fill="#0455bf" fill-opacity="1"><g transform="translate(165.695578, 236.904359)"><g><path d="M 3.171875 0 L 2.25 0 L 2.25 -3.828125 L 0.875 -3.828125 L 0.875 -4.71875 L 2.25 -4.71875 L 2.25 -6.125 L 3.171875 -6.125 L 3.171875 -4.71875 L 4.796875 -4.71875 L 4.796875 -3.828125 L 3.171875 -3.828125 Z M 3.171875 0 "/></g></g></g><g fill="#0455bf" fill-opacity="1"><g transform="translate(169.718618, 236.904359)"><g/></g></g><g fill="#0455bf" fill-opacity="1"><g transform="translate(171.770642, 236.904359)"><g><path d="M 4.796875 -6.296875 C 5.160156 -6.296875 5.488281 -6.207031 5.78125 -6.03125 C 6.082031 -5.863281 6.320312 -5.632812 6.5 -5.34375 C 6.6875 -5.050781 6.78125 -4.722656 6.78125 -4.359375 C 6.78125 -3.984375 6.679688 -3.644531 6.484375 -3.34375 C 6.296875 -3.039062 6.039062 -2.796875 5.71875 -2.609375 C 5.394531 -2.429688 5.039062 -2.34375 4.65625 -2.34375 L 2.390625 -2.34375 L 2.390625 0 L 1.421875 0 L 1.421875 -6.296875 Z M 4.59375 -3.28125 C 4.800781 -3.28125 4.992188 -3.328125 5.171875 -3.421875 C 5.347656 -3.523438 5.488281 -3.65625 5.59375 -3.8125 C 5.707031 -3.976562 5.765625 -4.160156 5.765625 -4.359375 C 5.765625 -4.546875 5.707031 -4.710938 5.59375 -4.859375 C 5.488281 -5.015625 5.347656 -5.132812 5.171875 -5.21875 C 4.992188 -5.3125 4.800781 -5.359375 4.59375 -5.359375 L 2.390625 -5.359375 L 2.390625 -3.28125 Z M 4.59375 -3.28125 "/></g></g></g><g fill="#0455bf" fill-opacity="1"><g transform="translate(177.746695, 236.904359)"><g><path d="M 5.03125 -3.640625 C 4.914062 -3.691406 4.773438 -3.738281 4.609375 -3.78125 C 4.453125 -3.820312 4.300781 -3.84375 4.15625 -3.84375 C 3.84375 -3.84375 3.5625 -3.769531 3.3125 -3.625 C 3.070312 -3.488281 2.882812 -3.3125 2.75 -3.09375 C 2.613281 -2.875 2.546875 -2.644531 2.546875 -2.40625 L 2.546875 0 L 1.609375 0 L 1.609375 -4.71875 L 2.546875 -4.71875 L 2.546875 -3.71875 C 2.734375 -4.039062 2.984375 -4.304688 3.296875 -4.515625 C 3.617188 -4.722656 3.957031 -4.828125 4.3125 -4.828125 C 4.5 -4.828125 4.679688 -4.804688 4.859375 -4.765625 C 5.035156 -4.722656 5.175781 -4.671875 5.28125 -4.609375 Z M 5.03125 -3.640625 "/></g></g></g><g fill="#0455bf" fill-opacity="1"><g transform="translate(182.021732, 236.904359)"><g><path d="M 6.796875 -2.359375 C 6.796875 -1.878906 6.671875 -1.457031 6.421875 -1.09375 C 6.171875 -0.726562 5.820312 -0.4375 5.375 -0.21875 C 4.9375 -0.0078125 4.4375 0.09375 3.875 0.09375 C 3.300781 0.09375 2.789062 -0.0078125 2.34375 -0.21875 C 1.90625 -0.4375 1.5625 -0.726562 1.3125 -1.09375 C 1.0625 -1.457031 0.9375 -1.878906 0.9375 -2.359375 C 0.9375 -2.847656 1.0625 -3.273438 1.3125 -3.640625 C 1.5625 -4.003906 1.90625 -4.289062 2.34375 -4.5 C 2.789062 -4.71875 3.300781 -4.828125 3.875 -4.828125 C 4.4375 -4.828125 4.9375 -4.71875 5.375 -4.5 C 5.820312 -4.289062 6.171875 -4.003906 6.421875 -3.640625 C 6.671875 -3.273438 6.796875 -2.847656 6.796875 -2.359375 Z M 5.84375 -2.359375 C 5.851562 -2.679688 5.769531 -2.960938 5.59375 -3.203125 C 5.425781 -3.453125 5.191406 -3.644531 4.890625 -3.78125 C 4.585938 -3.914062 4.25 -3.984375 3.875 -3.984375 C 3.5 -3.984375 3.160156 -3.914062 2.859375 -3.78125 C 2.554688 -3.644531 2.316406 -3.453125 2.140625 -3.203125 C 1.960938 -2.960938 1.878906 -2.679688 1.890625 -2.359375 C 1.878906 -2.054688 1.960938 -1.78125 2.140625 -1.53125 C 2.316406 -1.289062 2.554688 -1.097656 2.859375 -0.953125 C 3.160156 -0.816406 3.5 -0.75 3.875 -0.75 C 4.25 -0.75 4.585938 -0.816406 4.890625 -0.953125 C 5.191406 -1.097656 5.425781 -1.289062 5.59375 -1.53125 C 5.769531 -1.78125 5.851562 -2.054688 5.84375 -2.359375 Z M 5.84375 -2.359375 "/></g></g></g><g fill="#0455bf" fill-opacity="1"><g transform="translate(187.961782, 236.904359)"><g><path d="M 6.5 -6.65625 L 6.5 0 L 5.578125 0 L 5.578125 -0.78125 C 5.460938 -0.632812 5.300781 -0.492188 5.09375 -0.359375 C 4.882812 -0.222656 4.644531 -0.113281 4.375 -0.03125 C 4.113281 0.0507812 3.832031 0.09375 3.53125 0.09375 C 3 0.09375 2.53125 -0.0078125 2.125 -0.21875 C 1.726562 -0.4375 1.421875 -0.726562 1.203125 -1.09375 C 0.984375 -1.46875 0.875 -1.890625 0.875 -2.359375 C 0.875 -2.847656 0.988281 -3.273438 1.21875 -3.640625 C 1.445312 -4.003906 1.765625 -4.289062 2.171875 -4.5 C 2.578125 -4.71875 3.039062 -4.828125 3.5625 -4.828125 C 4.007812 -4.828125 4.410156 -4.75 4.765625 -4.59375 C 5.117188 -4.445312 5.390625 -4.269531 5.578125 -4.0625 L 5.578125 -6.65625 Z M 3.71875 -0.75 C 4.09375 -0.75 4.421875 -0.816406 4.703125 -0.953125 C 4.984375 -1.097656 5.203125 -1.289062 5.359375 -1.53125 C 5.523438 -1.78125 5.609375 -2.054688 5.609375 -2.359375 C 5.609375 -2.671875 5.523438 -2.945312 5.359375 -3.1875 C 5.203125 -3.4375 4.984375 -3.628906 4.703125 -3.765625 C 4.421875 -3.910156 4.09375 -3.984375 3.71875 -3.984375 C 3.34375 -3.984375 3.007812 -3.910156 2.71875 -3.765625 C 2.4375 -3.628906 2.21875 -3.4375 2.0625 -3.1875 C 1.90625 -2.945312 1.828125 -2.671875 1.828125 -2.359375 C 1.828125 -2.054688 1.90625 -1.78125 2.0625 -1.53125 C 2.21875 -1.289062 2.4375 -1.097656 2.71875 -0.953125 C 3.007812 -0.816406 3.34375 -0.75 3.71875 -0.75 Z M 3.71875 -0.75 "/></g></g></g><g fill="#0455bf" fill-opacity="1"><g transform="translate(194.009841, 236.904359)"><g><path d="M 5.484375 -2.328125 L 5.484375 -4.71875 L 6.40625 -4.71875 L 6.40625 0 L 5.484375 0 L 5.484375 -0.8125 C 5.304688 -0.582031 5.046875 -0.375 4.703125 -0.1875 C 4.359375 0 3.941406 0.09375 3.453125 0.09375 C 3.054688 0.09375 2.707031 0.00390625 2.40625 -0.171875 C 2.113281 -0.359375 1.882812 -0.625 1.71875 -0.96875 C 1.550781 -1.3125 1.46875 -1.722656 1.46875 -2.203125 L 1.46875 -4.71875 L 2.40625 -4.71875 L 2.40625 -2.515625 C 2.40625 -1.972656 2.515625 -1.550781 2.734375 -1.25 C 2.960938 -0.945312 3.328125 -0.796875 3.828125 -0.796875 C 4.128906 -0.796875 4.40625 -0.859375 4.65625 -0.984375 C 4.90625 -1.109375 5.101562 -1.285156 5.25 -1.515625 C 5.40625 -1.742188 5.484375 -2.015625 5.484375 -2.328125 Z M 5.484375 -2.328125 "/></g></g></g><g fill="#0455bf" fill-opacity="1"><g transform="translate(200.093892, 236.904359)"><g><path d="M 1.890625 -2.359375 C 1.890625 -2.054688 1.972656 -1.78125 2.140625 -1.53125 C 2.304688 -1.289062 2.523438 -1.097656 2.796875 -0.953125 C 3.078125 -0.816406 3.382812 -0.75 3.71875 -0.75 C 4.15625 -0.75 4.53125 -0.820312 4.84375 -0.96875 C 5.15625 -1.113281 5.421875 -1.265625 5.640625 -1.421875 L 6.140625 -0.734375 C 5.847656 -0.503906 5.5 -0.304688 5.09375 -0.140625 C 4.6875 0.015625 4.21875 0.09375 3.6875 0.09375 C 3.164062 0.09375 2.695312 -0.015625 2.28125 -0.234375 C 1.875 -0.453125 1.546875 -0.742188 1.296875 -1.109375 C 1.054688 -1.484375 0.9375 -1.898438 0.9375 -2.359375 C 0.9375 -2.828125 1.054688 -3.242188 1.296875 -3.609375 C 1.546875 -3.984375 1.875 -4.28125 2.28125 -4.5 C 2.695312 -4.71875 3.164062 -4.828125 3.6875 -4.828125 C 4.207031 -4.828125 4.6875 -4.742188 5.125 -4.578125 C 5.5625 -4.410156 5.898438 -4.179688 6.140625 -3.890625 L 5.625 -3.171875 C 5.476562 -3.328125 5.300781 -3.460938 5.09375 -3.578125 C 4.882812 -3.703125 4.660156 -3.800781 4.421875 -3.875 C 4.179688 -3.945312 3.945312 -3.984375 3.71875 -3.984375 C 3.351562 -3.984375 3.03125 -3.910156 2.75 -3.765625 C 2.476562 -3.628906 2.265625 -3.4375 2.109375 -3.1875 C 1.960938 -2.945312 1.890625 -2.671875 1.890625 -2.359375 Z M 1.890625 -2.359375 "/></g></g></g><g fill="#0455bf" fill-opacity="1"><g transform="translate(205.340945, 236.904359)"><g><path d="M 3.171875 0 L 2.25 0 L 2.25 -3.828125 L 0.875 -3.828125 L 0.875 -4.71875 L 2.25 -4.71875 L 2.25 -6.125 L 3.171875 -6.125 L 3.171875 -4.71875 L 4.796875 -4.71875 L 4.796875 -3.828125 L 3.171875 -3.828125 Z M 3.171875 0 "/></g></g></g><g fill="#0455bf" fill-opacity="1"><g transform="translate(209.363983, 236.904359)"><g><path d="M 2.109375 -5.75 C 1.890625 -5.75 1.726562 -5.800781 1.625 -5.90625 C 1.53125 -6.019531 1.484375 -6.160156 1.484375 -6.328125 C 1.484375 -6.484375 1.53125 -6.617188 1.625 -6.734375 C 1.726562 -6.859375 1.890625 -6.921875 2.109375 -6.921875 C 2.316406 -6.921875 2.472656 -6.863281 2.578125 -6.75 C 2.679688 -6.644531 2.734375 -6.503906 2.734375 -6.328125 C 2.734375 -6.179688 2.679688 -6.046875 2.578125 -5.921875 C 2.472656 -5.804688 2.316406 -5.75 2.109375 -5.75 Z M 2.5625 0 L 1.625 0 L 1.625 -4.71875 L 2.5625 -4.71875 Z M 2.5625 0 "/></g></g></g><g fill="#0455bf" fill-opacity="1"><g transform="translate(211.749006, 236.904359)"><g><path d="M 6.796875 -2.359375 C 6.796875 -1.878906 6.671875 -1.457031 6.421875 -1.09375 C 6.171875 -0.726562 5.820312 -0.4375 5.375 -0.21875 C 4.9375 -0.0078125 4.4375 0.09375 3.875 0.09375 C 3.300781 0.09375 2.789062 -0.0078125 2.34375 -0.21875 C 1.90625 -0.4375 1.5625 -0.726562 1.3125 -1.09375 C 1.0625 -1.457031 0.9375 -1.878906 0.9375 -2.359375 C 0.9375 -2.847656 1.0625 -3.273438 1.3125 -3.640625 C 1.5625 -4.003906 1.90625 -4.289062 2.34375 -4.5 C 2.789062 -4.71875 3.300781 -4.828125 3.875 -4.828125 C 4.4375 -4.828125 4.9375 -4.71875 5.375 -4.5 C 5.820312 -4.289062 6.171875 -4.003906 6.421875 -3.640625 C 6.671875 -3.273438 6.796875 -2.847656 6.796875 -2.359375 Z M 5.84375 -2.359375 C 5.851562 -2.679688 5.769531 -2.960938 5.59375 -3.203125 C 5.425781 -3.453125 5.191406 -3.644531 4.890625 -3.78125 C 4.585938 -3.914062 4.25 -3.984375 3.875 -3.984375 C 3.5 -3.984375 3.160156 -3.914062 2.859375 -3.78125 C 2.554688 -3.644531 2.316406 -3.453125 2.140625 -3.203125 C 1.960938 -2.960938 1.878906 -2.679688 1.890625 -2.359375 C 1.878906 -2.054688 1.960938 -1.78125 2.140625 -1.53125 C 2.316406 -1.289062 2.554688 -1.097656 2.859375 -0.953125 C 3.160156 -0.816406 3.5 -0.75 3.875 -0.75 C 4.25 -0.75 4.585938 -0.816406 4.890625 -0.953125 C 5.191406 -1.097656 5.425781 -1.289062 5.59375 -1.53125 C 5.769531 -1.78125 5.851562 -2.054688 5.84375 -2.359375 Z M 5.84375 -2.359375 "/></g></g></g><g fill="#0455bf" fill-opacity="1"><g transform="translate(217.689056, 236.904359)"><g><path d="M 4.40625 -4.828125 C 4.882812 -4.828125 5.273438 -4.734375 5.578125 -4.546875 C 5.878906 -4.367188 6.101562 -4.125 6.25 -3.8125 C 6.40625 -3.507812 6.484375 -3.175781 6.484375 -2.8125 L 6.484375 0 L 5.546875 0 L 5.546875 -2.6875 C 5.546875 -3.070312 5.414062 -3.382812 5.15625 -3.625 C 4.90625 -3.863281 4.578125 -3.976562 4.171875 -3.96875 C 3.847656 -3.96875 3.5625 -3.894531 3.3125 -3.75 C 3.070312 -3.601562 2.878906 -3.425781 2.734375 -3.21875 C 2.597656 -3.007812 2.53125 -2.800781 2.53125 -2.59375 L 2.53125 0 L 1.609375 0 L 1.609375 -4.71875 L 2.53125 -4.71875 L 2.53125 -3.890625 C 2.726562 -4.128906 2.984375 -4.34375 3.296875 -4.53125 C 3.617188 -4.726562 3.988281 -4.828125 4.40625 -4.828125 Z M 4.40625 -4.828125 "/></g></g></g><g fill="#0455bf" fill-opacity="1"><g transform="translate(172.080273, 245.358135)"><g><path d="M 4.921875 -0.484375 L 4.90625 -0.484375 C 4.769531 -0.390625 4.601562 -0.296875 4.40625 -0.203125 C 4.21875 -0.117188 4.003906 -0.0507812 3.765625 0 C 3.535156 0.0507812 3.296875 0.078125 3.046875 0.078125 C 2.585938 0.078125 2.175781 -0.00390625 1.8125 -0.171875 C 1.457031 -0.335938 1.179688 -0.5625 0.984375 -0.84375 C 0.785156 -1.125 0.6875 -1.445312 0.6875 -1.8125 C 0.6875 -2.226562 0.789062 -2.582031 1 -2.875 C 1.21875 -3.164062 1.5 -3.390625 1.84375 -3.546875 C 2.1875 -3.710938 2.566406 -3.796875 2.984375 -3.796875 C 3.367188 -3.796875 3.71875 -3.71875 4.03125 -3.5625 C 4.351562 -3.40625 4.609375 -3.191406 4.796875 -2.921875 C 4.984375 -2.660156 5.078125 -2.347656 5.078125 -1.984375 L 5.078125 -1.625 L 1.4375 -1.625 C 1.5 -1.3125 1.6875 -1.0625 2 -0.875 C 2.3125 -0.6875 2.703125 -0.59375 3.171875 -0.59375 C 3.515625 -0.59375 3.796875 -0.640625 4.015625 -0.734375 C 4.242188 -0.835938 4.429688 -0.9375 4.578125 -1.03125 Z M 2.984375 -3.125 C 2.609375 -3.125 2.273438 -3.050781 1.984375 -2.90625 C 1.703125 -2.769531 1.523438 -2.535156 1.453125 -2.203125 L 4.34375 -2.203125 L 4.34375 -2.3125 C 4.3125 -2.46875 4.226562 -2.609375 4.09375 -2.734375 C 3.96875 -2.859375 3.804688 -2.953125 3.609375 -3.015625 C 3.410156 -3.085938 3.203125 -3.125 2.984375 -3.125 Z M 2.984375 -3.125 "/></g></g></g><g fill="#0455bf" fill-opacity="1"><g transform="translate(176.556193, 245.358135)"><g><path d="M 3.890625 -2.703125 C 3.710938 -2.835938 3.492188 -2.953125 3.234375 -3.046875 C 2.984375 -3.140625 2.742188 -3.1875 2.515625 -3.1875 C 2.367188 -3.1875 2.21875 -3.171875 2.0625 -3.140625 C 1.914062 -3.117188 1.785156 -3.078125 1.671875 -3.015625 C 1.554688 -2.953125 1.5 -2.859375 1.5 -2.734375 C 1.5 -2.628906 1.550781 -2.539062 1.65625 -2.46875 C 1.769531 -2.394531 1.910156 -2.335938 2.078125 -2.296875 C 2.253906 -2.253906 2.441406 -2.210938 2.640625 -2.171875 C 2.847656 -2.140625 3.046875 -2.097656 3.234375 -2.046875 C 3.429688 -1.992188 3.609375 -1.925781 3.765625 -1.84375 C 3.929688 -1.769531 4.0625 -1.671875 4.15625 -1.546875 C 4.257812 -1.429688 4.3125 -1.285156 4.3125 -1.109375 C 4.3125 -0.847656 4.234375 -0.628906 4.078125 -0.453125 C 3.921875 -0.285156 3.710938 -0.15625 3.453125 -0.0625 C 3.203125 0.03125 2.921875 0.078125 2.609375 0.078125 C 2.222656 0.078125 1.863281 0.0234375 1.53125 -0.078125 C 1.195312 -0.179688 0.914062 -0.363281 0.6875 -0.625 L 1.1875 -1.078125 C 1.351562 -0.898438 1.550781 -0.765625 1.78125 -0.671875 C 2.019531 -0.578125 2.285156 -0.53125 2.578125 -0.53125 C 2.710938 -0.53125 2.859375 -0.539062 3.015625 -0.5625 C 3.171875 -0.59375 3.304688 -0.640625 3.421875 -0.703125 C 3.535156 -0.773438 3.59375 -0.875 3.59375 -1 C 3.59375 -1.113281 3.535156 -1.203125 3.421875 -1.265625 C 3.304688 -1.328125 3.160156 -1.378906 2.984375 -1.421875 C 2.804688 -1.460938 2.617188 -1.5 2.421875 -1.53125 C 2.191406 -1.570312 1.976562 -1.617188 1.78125 -1.671875 C 1.582031 -1.722656 1.40625 -1.789062 1.25 -1.875 C 1.101562 -1.957031 0.988281 -2.066406 0.90625 -2.203125 C 0.820312 -2.335938 0.78125 -2.507812 0.78125 -2.71875 C 0.78125 -2.9375 0.851562 -3.125 1 -3.28125 C 1.15625 -3.445312 1.363281 -3.570312 1.625 -3.65625 C 1.894531 -3.738281 2.1875 -3.78125 2.5 -3.78125 C 2.695312 -3.78125 2.90625 -3.757812 3.125 -3.71875 C 3.351562 -3.6875 3.566406 -3.625 3.765625 -3.53125 C 3.972656 -3.445312 4.144531 -3.332031 4.28125 -3.1875 Z M 3.890625 -2.703125 "/></g></g></g><g fill="#0455bf" fill-opacity="1"><g transform="translate(180.14258, 245.358135)"><g><path d="M 2.5 0 L 1.765625 0 L 1.765625 -3 L 0.6875 -3 L 0.6875 -3.703125 L 1.765625 -3.703125 L 1.765625 -4.8125 L 2.5 -4.8125 L 2.5 -3.703125 L 3.765625 -3.703125 L 3.765625 -3 L 2.5 -3 Z M 2.5 0 "/></g></g></g><g fill="#0455bf" fill-opacity="1"><g transform="translate(183.298316, 245.358135)"><g><path d="M 1.625 0.078125 C 1.394531 0.078125 1.222656 0.03125 1.109375 -0.0625 C 1.003906 -0.164062 0.953125 -0.296875 0.953125 -0.453125 C 0.953125 -0.585938 1.003906 -0.707031 1.109375 -0.8125 C 1.222656 -0.925781 1.394531 -0.984375 1.625 -0.984375 C 1.84375 -0.984375 2.003906 -0.929688 2.109375 -0.828125 C 2.222656 -0.734375 2.28125 -0.609375 2.28125 -0.453125 C 2.28125 -0.316406 2.222656 -0.191406 2.109375 -0.078125 C 2.003906 0.0234375 1.84375 0.078125 1.625 0.078125 Z M 1.625 0.078125 "/></g></g></g><g fill="#0455bf" fill-opacity="1"><g transform="translate(185.119749, 245.358135)"><g/></g></g><g fill="#0455bf" fill-opacity="1"><g transform="translate(186.72939, 245.358135)"><g><path d="M 4.40625 -0.734375 L 4.40625 0 L 0.953125 0 L 0.71875 -0.578125 L 2.375 -2.125 C 2.550781 -2.289062 2.722656 -2.457031 2.890625 -2.625 C 3.054688 -2.789062 3.191406 -2.953125 3.296875 -3.109375 C 3.398438 -3.273438 3.453125 -3.4375 3.453125 -3.59375 C 3.453125 -3.820312 3.378906 -4 3.234375 -4.125 C 3.085938 -4.25 2.875 -4.3125 2.59375 -4.3125 C 2.34375 -4.3125 2.09375 -4.238281 1.84375 -4.09375 C 1.601562 -3.957031 1.394531 -3.722656 1.21875 -3.390625 L 0.65625 -3.765625 C 0.851562 -4.148438 1.125 -4.453125 1.46875 -4.671875 C 1.8125 -4.898438 2.21875 -5.015625 2.6875 -5.015625 C 3 -5.015625 3.269531 -4.957031 3.5 -4.84375 C 3.738281 -4.726562 3.921875 -4.570312 4.046875 -4.375 C 4.179688 -4.175781 4.25 -3.941406 4.25 -3.671875 C 4.25 -3.472656 4.203125 -3.28125 4.109375 -3.09375 C 4.023438 -2.90625 3.910156 -2.722656 3.765625 -2.546875 C 3.628906 -2.378906 3.476562 -2.21875 3.3125 -2.0625 C 3.144531 -1.90625 2.984375 -1.75 2.828125 -1.59375 L 1.921875 -0.734375 Z M 4.40625 -0.734375 "/></g></g></g><g fill="#0455bf" fill-opacity="1"><g transform="translate(190.336953, 245.358135)"><g><path d="M 2.71875 0.078125 C 2.257812 0.078125 1.867188 -0.03125 1.546875 -0.25 C 1.234375 -0.476562 0.992188 -0.78125 0.828125 -1.15625 C 0.671875 -1.539062 0.59375 -1.976562 0.59375 -2.46875 C 0.59375 -2.96875 0.671875 -3.40625 0.828125 -3.78125 C 0.992188 -4.164062 1.234375 -4.46875 1.546875 -4.6875 C 1.867188 -4.90625 2.257812 -5.015625 2.71875 -5.015625 C 3.164062 -5.015625 3.546875 -4.90625 3.859375 -4.6875 C 4.171875 -4.46875 4.40625 -4.164062 4.5625 -3.78125 C 4.71875 -3.40625 4.796875 -2.96875 4.796875 -2.46875 C 4.796875 -1.976562 4.71875 -1.539062 4.5625 -1.15625 C 4.40625 -0.78125 4.171875 -0.476562 3.859375 -0.25 C 3.546875 -0.03125 3.164062 0.078125 2.71875 0.078125 Z M 2.71875 -0.625 C 3.132812 -0.625 3.457031 -0.78125 3.6875 -1.09375 C 3.925781 -1.414062 4.046875 -1.875 4.046875 -2.46875 C 4.046875 -3.0625 3.925781 -3.519531 3.6875 -3.84375 C 3.457031 -4.164062 3.132812 -4.328125 2.71875 -4.328125 C 2.28125 -4.328125 1.9375 -4.164062 1.6875 -3.84375 C 1.445312 -3.519531 1.328125 -3.0625 1.328125 -2.46875 C 1.328125 -1.875 1.445312 -1.414062 1.6875 -1.09375 C 1.9375 -0.78125 2.28125 -0.625 2.71875 -0.625 Z M 2.71875 -0.625 "/></g></g></g><g fill="#0455bf" fill-opacity="1"><g transform="translate(194.318684, 245.358135)"><g><path d="M 4.40625 -0.734375 L 4.40625 0 L 0.953125 0 L 0.71875 -0.578125 L 2.375 -2.125 C 2.550781 -2.289062 2.722656 -2.457031 2.890625 -2.625 C 3.054688 -2.789062 3.191406 -2.953125 3.296875 -3.109375 C 3.398438 -3.273438 3.453125 -3.4375 3.453125 -3.59375 C 3.453125 -3.820312 3.378906 -4 3.234375 -4.125 C 3.085938 -4.25 2.875 -4.3125 2.59375 -4.3125 C 2.34375 -4.3125 2.09375 -4.238281 1.84375 -4.09375 C 1.601562 -3.957031 1.394531 -3.722656 1.21875 -3.390625 L 0.65625 -3.765625 C 0.851562 -4.148438 1.125 -4.453125 1.46875 -4.671875 C 1.8125 -4.898438 2.21875 -5.015625 2.6875 -5.015625 C 3 -5.015625 3.269531 -4.957031 3.5 -4.84375 C 3.738281 -4.726562 3.921875 -4.570312 4.046875 -4.375 C 4.179688 -4.175781 4.25 -3.941406 4.25 -3.671875 C 4.25 -3.472656 4.203125 -3.28125 4.109375 -3.09375 C 4.023438 -2.90625 3.910156 -2.722656 3.765625 -2.546875 C 3.628906 -2.378906 3.476562 -2.21875 3.3125 -2.0625 C 3.144531 -1.90625 2.984375 -1.75 2.828125 -1.59375 L 1.921875 -0.734375 Z M 4.40625 -0.734375 "/></g></g></g><g fill="#0455bf" fill-opacity="1"><g transform="translate(197.926247, 245.358135)"><g><path d="M 2.375 0.046875 C 2.019531 0.046875 1.691406 -0.0234375 1.390625 -0.171875 C 1.085938 -0.328125 0.835938 -0.519531 0.640625 -0.75 L 1.03125 -1.3125 C 1.238281 -1.113281 1.457031 -0.953125 1.6875 -0.828125 C 1.914062 -0.710938 2.144531 -0.65625 2.375 -0.65625 C 2.738281 -0.65625 3.035156 -0.742188 3.265625 -0.921875 C 3.492188 -1.097656 3.609375 -1.34375 3.609375 -1.65625 C 3.609375 -1.84375 3.554688 -2.007812 3.453125 -2.15625 C 3.347656 -2.300781 3.207031 -2.414062 3.03125 -2.5 C 2.851562 -2.582031 2.65625 -2.625 2.4375 -2.625 C 2.144531 -2.625 1.898438 -2.582031 1.703125 -2.5 C 1.503906 -2.425781 1.351562 -2.367188 1.25 -2.328125 L 0.84375 -2.84375 L 1.125 -4.9375 L 4 -4.9375 L 4 -4.234375 L 1.703125 -4.234375 L 1.546875 -3.109375 C 1.671875 -3.160156 1.828125 -3.207031 2.015625 -3.25 C 2.203125 -3.289062 2.390625 -3.3125 2.578125 -3.3125 C 2.890625 -3.3125 3.179688 -3.242188 3.453125 -3.109375 C 3.722656 -2.972656 3.941406 -2.785156 4.109375 -2.546875 C 4.273438 -2.304688 4.359375 -2.019531 4.359375 -1.6875 C 4.359375 -1.351562 4.269531 -1.054688 4.09375 -0.796875 C 3.914062 -0.535156 3.675781 -0.328125 3.375 -0.171875 C 3.082031 -0.0234375 2.75 0.046875 2.375 0.046875 Z M 2.375 0.046875 "/></g></g></g><g fill="#fafafa" fill-opacity="1"><g transform="translate(41.016396, 217.124986)"><g><path d="M 2.5 -21.703125 C 2.5 -24.867188 3.097656 -27.828125 4.296875 -30.578125 C 5.492188 -33.335938 7.132812 -35.734375 9.21875 -37.765625 C 11.3125 -39.796875 13.773438 -41.394531 16.609375 -42.5625 C 19.441406 -43.738281 22.472656 -44.328125 25.703125 -44.328125 C 28.929688 -44.328125 31.960938 -43.738281 34.796875 -42.5625 C 37.640625 -41.394531 40.101562 -39.796875 42.1875 -37.765625 C 44.28125 -35.734375 45.921875 -33.335938 47.109375 -30.578125 C 48.304688 -27.828125 48.90625 -24.867188 48.90625 -21.703125 C 48.90625 -18.523438 48.304688 -15.5625 47.109375 -12.8125 C 45.921875 -10.0625 44.28125 -7.679688 42.1875 -5.671875 C 40.101562 -3.671875 37.640625 -2.085938 34.796875 -0.921875 C 31.960938 0.242188 28.929688 0.828125 25.703125 0.828125 C 22.472656 0.828125 19.441406 0.242188 16.609375 -0.921875 C 13.773438 -2.085938 11.3125 -3.671875 9.21875 -5.671875 C 7.132812 -7.679688 5.492188 -10.0625 4.296875 -12.8125 C 3.097656 -15.5625 2.5 -18.523438 2.5 -21.703125 Z M 25.703125 -9.09375 C 29.046875 -9.09375 31.882812 -10.316406 34.21875 -12.765625 C 36.5625 -15.210938 37.734375 -18.191406 37.734375 -21.703125 C 37.734375 -25.265625 36.5625 -28.269531 34.21875 -30.71875 C 31.882812 -33.164062 29.046875 -34.390625 25.703125 -34.390625 C 22.367188 -34.390625 19.53125 -33.164062 17.1875 -30.71875 C 14.851562 -28.269531 13.6875 -25.265625 13.6875 -21.703125 C 13.6875 -18.191406 14.851562 -15.210938 17.1875 -12.765625 C 19.53125 -10.316406 22.367188 -9.09375 25.703125 -9.09375 Z M 25.703125 -9.09375 "/></g></g></g><g fill="#fafafa" fill-opacity="1"><g transform="translate(88.004512, 217.124986)"><g><path d="M 50.25 -21.703125 C 50.25 -18.585938 49.664062 -15.664062 48.5 -12.9375 C 47.332031 -10.207031 45.742188 -7.84375 43.734375 -5.84375 C 41.734375 -3.84375 39.351562 -2.269531 36.59375 -1.125 C 33.84375 0.0078125 30.910156 0.578125 27.796875 0.578125 C 25.628906 0.578125 23.515625 0.273438 21.453125 -0.328125 C 19.390625 -0.941406 17.5 -1.804688 15.78125 -2.921875 L 15.78125 0 L 4.5 0 L 4.5 -58.421875 L 15.9375 -60.9375 L 15.9375 -40.0625 C 17.664062 -41.34375 19.570312 -42.332031 21.65625 -43.03125 C 23.75 -43.726562 25.90625 -44.078125 28.125 -44.078125 C 31.1875 -44.078125 34.066406 -43.488281 36.765625 -42.3125 C 39.460938 -41.144531 41.8125 -39.5625 43.8125 -37.5625 C 45.820312 -35.5625 47.394531 -33.195312 48.53125 -30.46875 C 49.675781 -27.738281 50.25 -24.816406 50.25 -21.703125 Z M 26.296875 -34.3125 C 24.234375 -34.3125 22.3125 -33.960938 20.53125 -33.265625 C 18.75 -32.566406 17.21875 -31.550781 15.9375 -30.21875 L 15.9375 -13.109375 C 17.164062 -11.878906 18.679688 -10.898438 20.484375 -10.171875 C 22.296875 -9.453125 24.234375 -9.09375 26.296875 -9.09375 C 29.859375 -9.09375 32.863281 -10.300781 35.3125 -12.71875 C 37.757812 -15.144531 38.984375 -18.140625 38.984375 -21.703125 C 38.984375 -25.265625 37.742188 -28.253906 35.265625 -30.671875 C 32.785156 -33.097656 29.796875 -34.3125 26.296875 -34.3125 Z M 26.296875 -34.3125 "/></g></g></g><g fill="#fafafa" fill-opacity="1"><g transform="translate(136.328005, 217.124986)"><g><path d="M 0.828125 -5.171875 L 6.515625 -12.765625 C 9.066406 -11.097656 11.484375 -9.859375 13.765625 -9.046875 C 16.046875 -8.242188 18.328125 -7.84375 20.609375 -7.84375 C 23.171875 -7.84375 25.21875 -8.257812 26.75 -9.09375 C 28.28125 -9.925781 29.046875 -11.039062 29.046875 -12.4375 C 29.046875 -13.550781 28.613281 -14.441406 27.75 -15.109375 C 26.882812 -15.773438 25.507812 -16.25 23.625 -16.53125 L 15.28125 -17.78125 C 10.988281 -18.445312 7.71875 -19.835938 5.46875 -21.953125 C 3.21875 -24.066406 2.09375 -26.875 2.09375 -30.375 C 2.09375 -34.550781 3.734375 -37.890625 7.015625 -40.390625 C 10.296875 -42.898438 14.691406 -44.15625 20.203125 -44.15625 C 23.367188 -44.15625 26.453125 -43.695312 29.453125 -42.78125 C 32.460938 -41.863281 35.332031 -40.515625 38.0625 -38.734375 L 32.546875 -31.390625 C 30.160156 -32.773438 27.878906 -33.816406 25.703125 -34.515625 C 23.535156 -35.210938 21.335938 -35.5625 19.109375 -35.5625 C 17.054688 -35.5625 15.398438 -35.171875 14.140625 -34.390625 C 12.890625 -33.609375 12.265625 -32.578125 12.265625 -31.296875 C 12.265625 -30.128906 12.722656 -29.222656 13.640625 -28.578125 C 14.566406 -27.941406 16.085938 -27.484375 18.203125 -27.203125 L 26.546875 -25.953125 C 30.773438 -25.347656 34.039062 -23.957031 36.34375 -21.78125 C 38.65625 -19.613281 39.8125 -16.859375 39.8125 -13.515625 C 39.8125 -11.460938 39.320312 -9.554688 38.34375 -7.796875 C 37.375 -6.046875 36.054688 -4.53125 34.390625 -3.25 C 32.722656 -1.96875 30.71875 -0.96875 28.375 -0.25 C 26.039062 0.46875 23.507812 0.828125 20.78125 0.828125 C 16.832031 0.828125 13.128906 0.316406 9.671875 -0.703125 C 6.222656 -1.734375 3.273438 -3.222656 0.828125 -5.171875 Z M 0.828125 -5.171875 "/></g></g></g><g fill="#fafafa" fill-opacity="1"><g transform="translate(172.883522, 217.124986)"><g><path d="M 25.796875 -9.1875 C 27.742188 -9.1875 29.566406 -9.570312 31.265625 -10.34375 C 32.960938 -11.125 34.585938 -12.347656 36.140625 -14.015625 L 42.984375 -6.921875 C 40.753906 -4.472656 38.082031 -2.566406 34.96875 -1.203125 C 31.851562 0.148438 28.628906 0.828125 25.296875 0.828125 C 22.117188 0.828125 19.125 0.242188 16.3125 -0.921875 C 13.507812 -2.085938 11.09375 -3.671875 9.0625 -5.671875 C 7.03125 -7.679688 5.425781 -10.0625 4.25 -12.8125 C 3.082031 -15.5625 2.5 -18.523438 2.5 -21.703125 C 2.5 -24.867188 3.082031 -27.828125 4.25 -30.578125 C 5.425781 -33.335938 7.03125 -35.734375 9.0625 -37.765625 C 11.09375 -39.796875 13.507812 -41.394531 16.3125 -42.5625 C 19.125 -43.738281 22.117188 -44.328125 25.296875 -44.328125 C 28.742188 -44.328125 32.050781 -43.644531 35.21875 -42.28125 C 38.394531 -40.914062 41.09375 -39.007812 43.3125 -36.5625 L 36.3125 -29.125 C 34.75 -30.851562 33.078125 -32.160156 31.296875 -33.046875 C 29.515625 -33.941406 27.597656 -34.390625 25.546875 -34.390625 C 22.253906 -34.390625 19.484375 -33.164062 17.234375 -30.71875 C 14.984375 -28.269531 13.859375 -25.265625 13.859375 -21.703125 C 13.859375 -18.140625 15.007812 -15.160156 17.3125 -12.765625 C 19.625 -10.378906 22.453125 -9.1875 25.796875 -9.1875 Z M 25.796875 -9.1875 "/></g></g></g><g fill="#fafafa" fill-opacity="1"><g transform="translate(212.860913, 217.124986)"><g><path d="M 15.609375 -43.484375 L 15.609375 -18.203125 C 15.609375 -15.410156 16.425781 -13.179688 18.0625 -11.515625 C 19.707031 -9.847656 21.894531 -9.015625 24.625 -9.015625 C 26.570312 -9.015625 28.3125 -9.390625 29.84375 -10.140625 C 31.375 -10.890625 32.640625 -11.960938 33.640625 -13.359375 L 33.640625 -43.484375 L 45.078125 -43.484375 L 45.078125 0 L 33.640625 0 L 33.640625 -3.5 C 31.972656 -2.113281 30.109375 -1.046875 28.046875 -0.296875 C 25.984375 0.453125 23.757812 0.828125 21.375 0.828125 C 16.363281 0.828125 12.242188 -0.796875 9.015625 -4.046875 C 5.785156 -7.304688 4.171875 -11.46875 4.171875 -16.53125 L 4.171875 -43.484375 Z M 15.609375 -43.484375 "/></g></g></g><g fill="#fafafa" fill-opacity="1"><g transform="translate(257.929438, 217.124986)"><g><path d="M 4.5 0 L 4.5 -43.484375 L 15.9375 -43.484375 L 15.9375 -38.734375 C 17.332031 -40.617188 19.015625 -42.046875 20.984375 -43.015625 C 22.960938 -43.992188 25.148438 -44.484375 27.546875 -44.484375 C 28.660156 -44.429688 29.59375 -44.332031 30.34375 -44.1875 C 31.09375 -44.050781 31.742188 -43.816406 32.296875 -43.484375 L 32.296875 -33.46875 C 31.460938 -33.863281 30.546875 -34.15625 29.546875 -34.34375 C 28.546875 -34.539062 27.515625 -34.640625 26.453125 -34.640625 C 24.234375 -34.640625 22.191406 -34.082031 20.328125 -32.96875 C 18.460938 -31.851562 17 -30.238281 15.9375 -28.125 L 15.9375 0 Z M 4.5 0 "/></g></g></g><g fill="#fafafa" fill-opacity="1"><g transform="translate(287.474235, 217.124986)"><g><path d="M 18.28125 0.75 C 13.601562 0.75 9.789062 -0.484375 6.84375 -2.953125 C 3.894531 -5.429688 2.421875 -8.648438 2.421875 -12.609375 C 2.421875 -16.722656 4.003906 -19.945312 7.171875 -22.28125 C 10.347656 -24.625 14.71875 -25.796875 20.28125 -25.796875 C 22.0625 -25.796875 23.84375 -25.65625 25.625 -25.375 C 27.40625 -25.09375 29.160156 -24.675781 30.890625 -24.125 L 30.890625 -27.203125 C 30.890625 -29.710938 30.109375 -31.609375 28.546875 -32.890625 C 26.984375 -34.171875 24.703125 -34.8125 21.703125 -34.8125 C 19.867188 -34.8125 17.878906 -34.515625 15.734375 -33.921875 C 13.585938 -33.335938 11.15625 -32.4375 8.4375 -31.21875 L 4.25 -39.640625 C 7.644531 -41.203125 10.941406 -42.375 14.140625 -43.15625 C 17.347656 -43.9375 20.507812 -44.328125 23.625 -44.328125 C 29.46875 -44.328125 34.015625 -42.921875 37.265625 -40.109375 C 40.523438 -37.296875 42.15625 -33.332031 42.15625 -28.21875 L 42.15625 0 L 30.890625 0 L 30.890625 -3 C 29.046875 -1.71875 27.109375 -0.769531 25.078125 -0.15625 C 23.046875 0.445312 20.78125 0.75 18.28125 0.75 Z M 13.359375 -12.859375 C 13.359375 -11.179688 14.082031 -9.851562 15.53125 -8.875 C 16.976562 -7.90625 18.894531 -7.421875 21.28125 -7.421875 C 23.175781 -7.421875 24.914062 -7.65625 26.5 -8.125 C 28.082031 -8.601562 29.546875 -9.289062 30.890625 -10.1875 L 30.890625 -16.6875 C 29.492188 -17.25 28.03125 -17.65625 26.5 -17.90625 C 24.96875 -18.15625 23.367188 -18.28125 21.703125 -18.28125 C 19.085938 -18.28125 17.039062 -17.789062 15.5625 -16.8125 C 14.09375 -15.84375 13.359375 -14.523438 13.359375 -12.859375 Z M 13.359375 -12.859375 "/></g></g></g><g fill="#0455bf" fill-opacity="1"><g transform="translate(329.379662, 217.124986)"><g><path d="M 10.015625 -12.765625 C 11.910156 -12.765625 13.523438 -12.097656 14.859375 -10.765625 C 16.191406 -9.429688 16.859375 -7.816406 16.859375 -5.921875 C 16.859375 -4.085938 16.191406 -2.503906 14.859375 -1.171875 C 13.523438 0.160156 11.910156 0.828125 10.015625 0.828125 C 8.179688 0.828125 6.59375 0.160156 5.25 -1.171875 C 3.914062 -2.503906 3.25 -4.085938 3.25 -5.921875 C 3.25 -7.816406 3.914062 -9.429688 5.25 -10.765625 C 6.59375 -12.097656 8.179688 -12.765625 10.015625 -12.765625 Z M 10.015625 -12.765625 "/></g></g></g><g clip-path="url(#deedf65070)"><g clip-path="url(#9fe909cd8f)"><g clip-path="url(#6c511a5de9)"><path fill="#0455bf" d="M 161.117188 112.363281 L 297.488281 98.179688 L 304.238281 163.074219 L 167.863281 177.253906 Z M 161.117188 112.363281 " fill-opacity="1" fill-rule="nonzero"/></g></g></g><g clip-path="url(#0c170e175f)"><g clip-path="url(#a96bf9612d)"><path fill="#0455bf" d="M 68.367188 224.753906 L 142.222656 224.753906 L 142.222656 261.253906 L 68.367188 261.253906 Z M 68.367188 224.753906 " fill-opacity="1" fill-rule="nonzero"/></g></g></svg>