<svg xmlns="http://www.w3.org/2000/svg" xmlns:xlink="http://www.w3.org/1999/xlink" width="500" zoomAndPan="magnify" viewBox="0 0 375 374.999991" height="500" preserveAspectRatio="xMidYMid meet" version="1.2"><defs><clipPath id="34060f5bab"><path d="M 169 101 L 296 101 L 296 167 L 169 167 Z M 169 101 "/></clipPath><clipPath id="097e6d2d66"><path d="M 163.636719 114.40625 L 295.191406 100.726562 L 301.464844 161.054688 L 169.90625 174.734375 Z M 163.636719 114.40625 "/></clipPath><clipPath id="7a2fa82ae6"><path d="M 172.675781 165.746094 C 171.761719 165.460938 172.730469 165.042969 172.730469 165.042969 C 172.738281 165.105469 172.113281 165.804688 171.6875 165.976562 C 171.132812 166.097656 170.292969 165.929688 169.820312 165.664062 C 169.484375 165.445312 169.171875 164.910156 169.070312 164.539062 C 169.027344 164.101562 168.980469 163.664062 169.304688 163.125 C 170.101562 161.648438 173.078125 159.253906 176.492188 156.808594 C 182.789062 152.296875 195.085938 145.832031 205.929688 140.023438 C 218.871094 133.113281 234.605469 125.023438 249.296875 118.5 C 263.871094 112.050781 289.390625 100.792969 293.726562 101.101562 C 294.488281 101.148438 294.832031 101.429688 295.066406 101.847656 C 295.292969 102.203125 295.421875 102.824219 295.222656 103.351562 C 294.757812 104.347656 291.136719 105.421875 290.511719 106.6875 C 290.09375 107.550781 290.835938 108.613281 290.539062 109.402344 C 290.3125 110.25 289.84375 110.613281 288.945312 111.71875 C 286.066406 115.054688 274.46875 125.179688 269.546875 130.753906 C 266.148438 134.585938 260.578125 139.402344 261.515625 141.136719 C 262.757812 143.347656 278.019531 139.234375 282.414062 139.535156 C 284.582031 139.6875 285.789062 139.753906 287.074219 140.566406 C 288.425781 141.375 289.996094 143.109375 290.4375 144.328125 C 290.789062 145.242188 290.550781 146.027344 290.519531 146.914062 C 290.433594 147.933594 290.332031 148.769531 289.890625 150.015625 C 289.125 152.371094 285.691406 159.496094 284.984375 159.382812 C 284.664062 159.351562 284.324219 157.300781 284.5625 157.148438 C 284.796875 156.996094 285.773438 158.476562 286.414062 158.539062 C 286.988281 158.605469 287.59375 157.71875 288.21875 157.652344 C 288.84375 157.589844 289.683594 157.753906 290.105469 158.152344 C 290.527344 158.550781 290.875 159.464844 290.746094 160.046875 C 290.679688 160.625 290.125 161.378906 289.582031 161.625 C 289.101562 161.863281 288.140625 161.773438 287.609375 161.511719 C 287.132812 161.183594 286.671875 160.40625 286.613281 159.84375 C 286.546875 159.21875 286.96875 158.417969 287.4375 158.050781 C 287.90625 157.6875 288.832031 157.464844 289.363281 157.722656 C 289.960938 157.980469 290.78125 159.160156 290.78125 159.789062 C 290.847656 160.417969 290.347656 161.101562 289.816406 161.472656 C 288.9375 162.132812 287.03125 162.648438 285.738281 162.402344 C 284.457031 162.21875 282.644531 161.207031 282.082031 160.0625 C 281.507812 158.792969 282.175781 156.699219 282.679688 154.878906 C 283.40625 152.714844 285.691406 149.757812 286.265625 147.988281 C 286.667969 147 287.027344 146.203125 286.824219 145.464844 C 286.566406 144.796875 285.875 144.234375 284.945312 143.824219 C 283.234375 143.179688 279.664062 143.488281 276.445312 143.570312 C 272.15625 143.699219 264.210938 145.160156 261.589844 144.863281 C 260.6875 144.703125 260.296875 144.617188 259.75 144.230469 C 259.066406 143.734375 258.148438 142.816406 258.050781 141.878906 C 257.914062 140.5625 259.101562 138.605469 260.074219 136.988281 C 261.261719 135.03125 262.828125 133.664062 265.097656 131.152344 C 269.632812 126.125 282.933594 114.117188 285.851562 109.320312 C 287.042969 107.425781 286.644531 106.015625 287.535156 104.847656 C 288.425781 103.679688 289.855469 102.832031 291.054688 102.203125 C 292.074219 101.652344 293.390625 100.949219 294.113281 101.1875 C 294.695312 101.316406 295.28125 102.078125 295.332031 102.582031 C 295.386719 103.082031 295.003906 103.691406 294.425781 104.191406 C 293.082031 105.28125 289.558594 105.457031 285.714844 106.804688 C 277.90625 109.578125 260.914062 116.46875 250.515625 121.09375 C 241.921875 124.832031 234.886719 128.347656 227.488281 132.027344 C 220.515625 135.535156 214.511719 138.625 207.40625 142.652344 C 199.101562 147.375 187.117188 154.378906 180.75 158.835938 C 176.972656 161.441406 173.988281 164.976562 172.105469 165.742188 C 171.320312 166.078125 170.75 166.074219 170.292969 165.929688 C 169.835938 165.789062 169.414062 165.390625 169.242188 164.964844 C 169.066406 164.476562 169.097656 163.589844 169.304688 163.125 C 169.515625 162.722656 169.984375 162.359375 170.402344 162.125 C 171.007812 161.871094 171.878906 161.71875 172.578125 161.769531 C 173.289062 161.886719 174.269531 162.226562 174.644531 162.757812 C 174.953125 163.296875 175.007812 164.429688 174.675781 164.90625 C 174.351562 165.445312 172.675781 165.746094 172.675781 165.746094 "/></clipPath><clipPath id="6b90a9d76a"><path d="M 71 227.320312 L 139.511719 227.320312 L 139.511719 258.6875 L 71 258.6875 Z M 71 227.320312 "/></clipPath><clipPath id="ec2920627b"><path d="M 100.503906 231.398438 C 82.589844 247.300781 75.816406 257.230469 74.539062 256.828125 C 74.070312 256.691406 73.667969 255.214844 74.203125 254.410156 C 76.417969 251.324219 100.839844 248.84375 112.246094 246.695312 C 121.574219 244.949219 134.320312 241.730469 137.742188 242.265625 C 138.683594 242.402344 139.152344 242.667969 139.421875 243.140625 C 139.621094 243.609375 139.421875 244.683594 139.019531 244.949219 C 138.546875 245.285156 137.140625 245.085938 136.804688 244.75 C 136.46875 244.414062 136.402344 243.742188 136.535156 243.339844 C 136.667969 242.9375 137.140625 242.332031 137.609375 242.332031 C 138.078125 242.265625 139.351562 242.9375 139.488281 243.472656 C 139.621094 243.945312 139.152344 244.75 138.28125 245.285156 C 135.261719 247.300781 122.175781 247.902344 112.984375 249.78125 C 101.78125 252.0625 80.914062 257.363281 76.082031 258.234375 C 74.875 258.4375 74.539062 258.703125 73.800781 258.503906 C 72.863281 258.234375 71.320312 257.230469 71.050781 256.355469 C 70.851562 255.484375 71.65625 254.410156 72.257812 253.40625 C 73.0625 252.128906 74.136719 251.257812 75.746094 249.511719 C 79.238281 245.6875 88.429688 235.492188 92.589844 232 C 94.734375 230.191406 96.347656 229.183594 97.890625 228.445312 C 99.03125 227.839844 100.171875 227.371094 101.109375 227.4375 C 101.847656 227.4375 102.652344 227.707031 103.121094 228.109375 C 103.59375 228.648438 104.128906 229.652344 103.996094 230.324219 C 103.859375 230.929688 102.921875 231.800781 102.316406 231.933594 C 101.78125 232.070312 100.503906 231.398438 100.503906 231.398438 "/></clipPath></defs><g id="6f95f3e943"><g clip-rule="nonzero" clip-path="url(#34060f5bab)"><g clip-rule="nonzero" clip-path="url(#097e6d2d66)"><g clip-rule="nonzero" clip-path="url(#7a2fa82ae6)"><path style=" stroke:none;fill-rule:nonzero;fill:#0455bf;fill-opacity:1;" d="M 161.117188 112.363281 L 297.488281 98.179688 L 304.238281 163.074219 L 167.863281 177.253906 Z M 161.117188 112.363281 "/></g></g></g><g style="fill:#ffcb00;fill-opacity:1;"><g transform="translate(77.321081, 227.309282)"><path style="stroke:none" d="M 4.5 0 L 4.5 -43.484375 L 15.9375 -43.484375 L 15.9375 -38.734375 C 17.332031 -40.617188 19.015625 -42.046875 20.984375 -43.015625 C 22.960938 -43.992188 25.148438 -44.484375 27.546875 -44.484375 C 28.660156 -44.429688 29.59375 -44.332031 30.34375 -44.1875 C 31.09375 -44.050781 31.742188 -43.816406 32.296875 -43.484375 L 32.296875 -33.46875 C 31.460938 -33.863281 30.546875 -34.15625 29.546875 -34.34375 C 28.546875 -34.539062 27.515625 -34.640625 26.453125 -34.640625 C 24.234375 -34.640625 22.191406 -34.082031 20.328125 -32.96875 C 18.460938 -31.851562 17 -30.238281 15.9375 -28.125 L 15.9375 0 Z M 4.5 0 "/></g></g><g style="fill:#ffcb00;fill-opacity:1;"><g transform="translate(106.865878, 227.309282)"><path style="stroke:none" d="M -0.328125 0 L 23.703125 -58.421875 L 37.734375 -58.421875 L 61.4375 0 L 48.328125 0 L 42.40625 -15.359375 L 18.28125 -15.359375 L 12.265625 0 Z M 22.03125 -25.046875 L 38.734375 -25.046875 L 30.46875 -46.578125 Z M 22.03125 -25.046875 "/></g></g><g style="fill:#ffcb00;fill-opacity:1;"><g transform="translate(163.535461, 227.309282)"><path style="stroke:none" d="M 5.265625 0 L 5.265625 -58.421875 L 17.359375 -58.421875 L 17.359375 0 Z M 5.265625 0 "/></g></g><g style="fill:#ffcb00;fill-opacity:1;"><g transform="translate(181.813047, 227.309282)"><path style="stroke:none" d="M 36.984375 0 L 36.984375 -3.59375 C 35.253906 -2.195312 33.332031 -1.148438 31.21875 -0.453125 C 29.101562 0.234375 26.90625 0.578125 24.625 0.578125 C 21.5625 0.578125 18.679688 -0.00390625 15.984375 -1.171875 C 13.285156 -2.335938 10.929688 -3.921875 8.921875 -5.921875 C 6.921875 -7.929688 5.347656 -10.296875 4.203125 -13.015625 C 3.066406 -15.742188 2.5 -18.664062 2.5 -21.78125 C 2.5 -24.894531 3.082031 -27.816406 4.25 -30.546875 C 5.425781 -33.273438 7.015625 -35.640625 9.015625 -37.640625 C 11.015625 -39.648438 13.390625 -41.222656 16.140625 -42.359375 C 18.898438 -43.503906 21.835938 -44.078125 24.953125 -44.078125 C 27.066406 -44.078125 29.140625 -43.78125 31.171875 -43.1875 C 33.203125 -42.601562 35.082031 -41.757812 36.8125 -40.65625 L 36.8125 -58.421875 L 48.25 -60.9375 L 48.25 0 Z M 13.765625 -21.78125 C 13.765625 -18.28125 14.988281 -15.304688 17.4375 -12.859375 C 19.894531 -10.410156 22.898438 -9.1875 26.453125 -9.1875 C 28.566406 -9.1875 30.5 -9.546875 32.25 -10.265625 C 34.007812 -10.992188 35.53125 -12.023438 36.8125 -13.359375 L 36.8125 -30.296875 C 35.582031 -31.578125 34.0625 -32.578125 32.25 -33.296875 C 30.445312 -34.023438 28.515625 -34.390625 26.453125 -34.390625 C 22.835938 -34.390625 19.816406 -33.175781 17.390625 -30.75 C 14.972656 -28.332031 13.765625 -25.34375 13.765625 -21.78125 Z M 13.765625 -21.78125 "/></g></g><g style="fill:#ffcb00;fill-opacity:1;"><g transform="translate(230.136545, 227.309282)"><path style="stroke:none" d="M 10.1875 -48.65625 C 8.40625 -48.65625 6.875 -49.296875 5.59375 -50.578125 C 4.3125 -51.859375 3.671875 -53.390625 3.671875 -55.171875 C 3.671875 -56.953125 4.3125 -58.484375 5.59375 -59.765625 C 6.875 -61.046875 8.40625 -61.6875 10.1875 -61.6875 C 11.96875 -61.6875 13.492188 -61.046875 14.765625 -59.765625 C 16.046875 -58.484375 16.6875 -56.953125 16.6875 -55.171875 C 16.6875 -53.390625 16.046875 -51.859375 14.765625 -50.578125 C 13.492188 -49.296875 11.96875 -48.65625 10.1875 -48.65625 Z M 15.9375 -43.484375 L 15.9375 0 L 4.5 0 L 4.5 -43.484375 Z M 15.9375 -43.484375 "/></g></g><g style="fill:#ffcb00;fill-opacity:1;"><g transform="translate(246.077226, 227.309282)"><path style="stroke:none" d="M 2.5 -21.703125 C 2.5 -24.867188 3.097656 -27.828125 4.296875 -30.578125 C 5.492188 -33.335938 7.132812 -35.734375 9.21875 -37.765625 C 11.3125 -39.796875 13.773438 -41.394531 16.609375 -42.5625 C 19.441406 -43.738281 22.472656 -44.328125 25.703125 -44.328125 C 28.929688 -44.328125 31.960938 -43.738281 34.796875 -42.5625 C 37.640625 -41.394531 40.101562 -39.796875 42.1875 -37.765625 C 44.28125 -35.734375 45.921875 -33.335938 47.109375 -30.578125 C 48.304688 -27.828125 48.90625 -24.867188 48.90625 -21.703125 C 48.90625 -18.523438 48.304688 -15.5625 47.109375 -12.8125 C 45.921875 -10.0625 44.28125 -7.679688 42.1875 -5.671875 C 40.101562 -3.671875 37.640625 -2.085938 34.796875 -0.921875 C 31.960938 0.242188 28.929688 0.828125 25.703125 0.828125 C 22.472656 0.828125 19.441406 0.242188 16.609375 -0.921875 C 13.773438 -2.085938 11.3125 -3.671875 9.21875 -5.671875 C 7.132812 -7.679688 5.492188 -10.0625 4.296875 -12.8125 C 3.097656 -15.5625 2.5 -18.523438 2.5 -21.703125 Z M 25.703125 -9.09375 C 29.046875 -9.09375 31.882812 -10.316406 34.21875 -12.765625 C 36.5625 -15.210938 37.734375 -18.191406 37.734375 -21.703125 C 37.734375 -25.265625 36.5625 -28.269531 34.21875 -30.71875 C 31.882812 -33.164062 29.046875 -34.390625 25.703125 -34.390625 C 22.367188 -34.390625 19.53125 -33.164062 17.1875 -30.71875 C 14.851562 -28.269531 13.6875 -25.265625 13.6875 -21.703125 C 13.6875 -18.191406 14.851562 -15.210938 17.1875 -12.765625 C 19.53125 -10.316406 22.367188 -9.09375 25.703125 -9.09375 Z M 25.703125 -9.09375 "/></g></g><g style="fill:#0455bf;fill-opacity:1;"><g transform="translate(293.074977, 227.309282)"><path style="stroke:none" d="M 10.015625 -12.765625 C 11.910156 -12.765625 13.523438 -12.097656 14.859375 -10.765625 C 16.191406 -9.429688 16.859375 -7.816406 16.859375 -5.921875 C 16.859375 -4.085938 16.191406 -2.503906 14.859375 -1.171875 C 13.523438 0.160156 11.910156 0.828125 10.015625 0.828125 C 8.179688 0.828125 6.59375 0.160156 5.25 -1.171875 C 3.914062 -2.503906 3.25 -4.085938 3.25 -5.921875 C 3.25 -7.816406 3.914062 -9.429688 5.25 -10.765625 C 6.59375 -12.097656 8.179688 -12.765625 10.015625 -12.765625 Z M 10.015625 -12.765625 "/></g></g><g clip-rule="nonzero" clip-path="url(#6b90a9d76a)"><g clip-rule="nonzero" clip-path="url(#ec2920627b)"><path style=" stroke:none;fill-rule:nonzero;fill:#0455bf;fill-opacity:1;" d="M 68.367188 224.753906 L 142.222656 224.753906 L 142.222656 261.253906 L 68.367188 261.253906 Z M 68.367188 224.753906 "/></g></g></g></svg>